<?xml version="1.0" encoding="UTF-8" standalone="no"?>
<!-- Created with Inkscape (http://www.inkscape.org/) -->

<svg
   version="1.1"
   id="svg1"
   width="1920"
   height="1080"
   viewBox="0 0 1920 1080"
   xmlns="http://www.w3.org/2000/svg"
   xmlns:svg="http://www.w3.org/2000/svg">
  <defs
     id="defs1" />
  <g
     id="g1">
    <path
       style="fill:#000000"
       d="m 967.67829,689.47726 c -10.281,-2.64384 -15.5,-11.18263 -15.5,-25.35939 0,-2.8282 0.5103,-10.17625 1.1341,-16.32899 1.3673,-13.48627 0.8189,-17.00645 -3.4021,-21.83916 -2.6535,-3.03813 -5.0536,-4.30833 -13.4093,-7.09667 -29.936,-9.98978 -52.1441,-28.05136 -64.9297,-52.80648 -8.7848,-17.00901 -12.393,-31.73788 -12.393,-50.58845 0,-22.73959 5.0041,-32.45738 15.7765,-30.63739 10.9431,1.84883 15.0057,9.2701 16.717,30.53776 2.149,26.70628 7.339,40.37049 19.4798,51.28613 11.4174,10.26515 24.6047,15.44097 49.3083,19.35263 33.0349,5.23089 52.48611,0.73249 67.89831,-15.70261 10.4271,-11.11908 16.6345,-26.00986 22.9006,-54.93615 5.2837,-24.39105 8.3515,-30 16.408,-30 5.5409,0 10.2317,3.21504 13.2509,9.08206 3.2226,6.26231 5.5005,20.58349 4.6792,29.41794 -2.0612,22.17068 -15.6499,48.7184 -34.8747,68.13346 -14.1519,14.29204 -28.8035,22.95718 -46.4475,27.46975 -8.90521,2.27758 -11.14131,3.61536 -14.13221,8.45473 -2.1774,3.52309 -2.2659,4.56364 -2.3631,27.80107 -0.13,31.03489 -0.7852,32.86579 -12.1781,34.02873 -2.7077,0.27638 -6.273,0.15534 -7.923,-0.26897 z m 13.4908,-8.61877 c 1.2423,-2.4694 1.4575,-7.04825 1.2171,-25.88888 -0.4433,-34.73868 0.6694,-37.84912 14.1961,-39.68667 18.92631,-2.57106 35.87341,-12.06751 52.17681,-29.23774 15.0271,-15.82601 24.8001,-32.94871 29.5686,-51.80571 1.7421,-6.88894 2.0155,-10.19027 1.5623,-18.86558 -0.3049,-5.83573 -1.2928,-12.62321 -2.2198,-15.25169 -2.009,-5.69582 -6.6716,-9.99787 -10.3686,-9.56668 -4.0996,0.47817 -6.5031,6.3728 -11.1142,27.25827 -2.3018,10.42542 -5.6962,23.18351 -7.5433,28.3513 -8.8246,24.69023 -23.7962,39.38687 -46.1653,45.31748 -15.48381,4.10513 -43.90821,2.0663 -65.32081,-4.68533 -26.0786,-8.22289 -41.5298,-23.27752 -47.433,-46.21546 -0.8884,-3.45218 -2.2946,-13.12718 -3.1249,-21.5 -0.8303,-8.37282 -1.9552,-16.90363 -2.4999,-18.95736 -1.3864,-5.22726 -4.737,-8.71177 -9.4219,-9.79856 -3.4812,-0.80755 -4.2253,-0.65878 -5.737,1.14702 -3.2404,3.87091 -4.2644,9.90879 -4.2206,24.88559 0.037,12.59759 0.4003,15.81201 2.7707,24.5 5.0712,18.58736 13.6668,33.63195 26.6109,46.576 12.6648,12.66479 28.992,22.0592 47.576,27.37441 12.5152,3.57948 14.4057,4.46254 15.9289,7.44044 2.4407,4.77166 2.6698,10.46298 1.0861,26.98566 -2.1177,22.09494 -0.9007,29.062 5.7988,33.19709 2.4213,1.49445 4.6244,1.90173 9.177,1.69648 5.539,-0.24971 6.1047,-0.49639 7.5,-3.27008 z m -22.4908,-107.88897 c -23.6106,-5.7557 -42.1946,-32.16374 -49.9712,-71.00948 -9.5426,-47.66754 -2.3952,-103.86964 17.2372,-135.54012 16.1587,-26.06687 40.4507,-33.57943 66.7415,-20.64056 37.18861,18.3021 55.38651,83.41555 41.97241,150.18068 -10.8827,54.16579 -41.67251,85.37281 -75.97991,77.00948 z m 28.5,-8.19737 c 27.63321,-13.12083 46.20251,-58.09473 46.20811,-111.91366 0,-41.81581 -10.2823,-73.69308 -29.8884,-92.62111 -10.71901,-10.34835 -21.64501,-14.90654 -35.88731,-14.97176 -12.226,-0.056 -20.6128,3.93847 -29.8571,14.2203 -11.6977,13.01069 -19.9354,33.4403 -25.15,62.37257 -2.1886,12.14261 -3.0462,46.90954 -1.4936,60.5465 4.6579,40.9109 19.2571,71.41532 38.9743,81.43534 7.5821,3.85311 10.5599,4.46648 20.594,4.24194 8.8426,-0.19788 10.7523,-0.581 16.5,-3.31012 z"
       id="path1" />
  </g>
</svg>
