<?xml version="1.0" encoding="UTF-8" standalone="no"?>
<!-- Created with Inkscape (http://www.inkscape.org/) -->

<svg
   version="1.1"
   id="svg1"
   width="1920"
   height="1080"
   viewBox="0 0 1920 1080"
   xmlns="http://www.w3.org/2000/svg"
   xmlns:svg="http://www.w3.org/2000/svg">
  <defs
     id="defs1" />
  <g
     id="g1">
    <path
       style="fill:#000000"
       d="m 837.79856,707.29833 c -1.46463,-73.19981 -5.80343,-382.29936 -5.37235,-382.73044 0.25534,-0.25535 10.08924,4.66858 21.8531,10.94207 58.19859,31.0364 380.45299,203.91003 380.88049,204.32362 0.2704,0.26164 -0.4046,1.00399 -1.5,1.64966 -3.5253,2.07791 -378.69609,190.74966 -387.09992,194.67085 l -8.10826,3.78329 z m 315.11954,-136.423 c 33.1375,-16.61459 60.25,-30.49298 60.25,-30.84088 0,-0.78401 -370.00886,-199.19959 -370.5192,-198.68925 -0.25514,0.25514 5.20431,380.25198 5.49539,382.49817 0.0131,0.10125 55.03635,-27.47827 122.27385,-61.28781 67.23746,-33.80954 149.36246,-75.06565 182.49996,-91.68023 z"
       id="path1" />
  </g>
</svg>
